<?xml version="1.0" encoding="UTF-8" standalone="no"?>
<!DOCTYPE svg PUBLIC "-//W3C//DTD SVG 1.1//EN"
 "http://www.w3.org/Graphics/SVG/1.1/DTD/svg11.dtd">
<!-- Generated by graphviz version 2.38.0 (20140413.2041)
 -->
<!-- Title: G Pages: 1 -->
<svg width="501pt" height="150pt"
 viewBox="0.00 0.00 501.37 150.00" xmlns="http://www.w3.org/2000/svg" xmlns:xlink="http://www.w3.org/1999/xlink">
<g id="graph0" class="graph" transform="scale(1 1) rotate(0) translate(4 146)">
<title>G</title>
<polygon fill="white" stroke="none" points="-4,4 -4,-146 497.371,-146 497.371,4 -4,4"/>
<g id="clust1" class="cluster"><title>cluster_Global</title>
<path fill="none" stroke="gray" d="M398.371,-8C398.371,-8 473.371,-8 473.371,-8 479.371,-8 485.371,-14 485.371,-20 485.371,-20 485.371,-122 485.371,-122 485.371,-128 479.371,-134 473.371,-134 473.371,-134 398.371,-134 398.371,-134 392.371,-134 386.371,-128 386.371,-122 386.371,-122 386.371,-20 386.371,-20 386.371,-14 392.371,-8 398.371,-8"/>
<text text-anchor="middle" x="435.871" y="-121.2" font-family="Times,serif" font-size="11.00" fill="gray">Global</text>
</g>
<!-- \\Funkcje -->
<g id="node1" class="node"><title>\\Funkcje</title>
<polygon fill="none" stroke="black" points="465.371,-106 406.371,-106 406.371,-70 465.371,-70 465.371,-106"/>
<text text-anchor="middle" x="435.871" y="-85.2" font-family="Courier,monospace" font-size="11.00">Funkcje</text>
</g>
<!-- \\FunkcjeTest -->
<g id="node2" class="node"><title>\\FunkcjeTest</title>
<polygon fill="none" stroke="black" points="477.371,-52 394.371,-52 394.371,-16 477.371,-16 477.371,-52"/>
<text text-anchor="middle" x="435.871" y="-31.2" font-family="Courier,monospace" font-size="11.00">FunkcjeTest</text>
</g>
<!-- \\PHPUnit_Framework_TestCase -->
<g id="node3" class="node"><title>\\PHPUnit_Framework_TestCase</title>
<ellipse fill="none" stroke="black" cx="161.186" cy="-34" rx="161.372" ry="18"/>
<text text-anchor="middle" x="161.186" y="-30.3" font-family="Times,serif" font-size="14.00" fill="gray">\PHPUnit_Framework_TestCase</text>
</g>
<!-- \\FunkcjeTest&#45;&gt;\\PHPUnit_Framework_TestCase -->
<g id="edge1" class="edge"><title>\\FunkcjeTest&#45;&gt;\\PHPUnit_Framework_TestCase</title>
<path fill="none" stroke="black" d="M394.342,-34C377.024,-34 355.536,-34 332.679,-34"/>
<polygon fill="none" stroke="black" points="332.452,-30.5001 322.452,-34 332.451,-37.5001 332.452,-30.5001"/>
</g>
</g>
</svg>
